<svg width="50" height="44" viewBox="0 0 50 44" fill="none" xmlns="http://www.w3.org/2000/svg">
<path d="M0 8.25C0 6.72891 1.59598 5.5 3.57143 5.5H46.4286C48.404 5.5 50 6.72891 50 8.25C50 9.77109 48.404 11 46.4286 11H3.57143C1.59598 11 0 9.77109 0 8.25ZM0 22C0 20.4789 1.59598 19.25 3.57143 19.25H46.4286C48.404 19.25 50 20.4789 50 22C50 23.5211 48.404 24.75 46.4286 24.75H3.57143C1.59598 24.75 0 23.5211 0 22ZM50 35.75C50 37.2711 48.404 38.5 46.4286 38.5H3.57143C1.59598 38.5 0 37.2711 0 35.75C0 34.2289 1.59598 33 3.57143 33H46.4286C48.404 33 50 34.2289 50 35.75Z" fill="black"/>
</svg>
