<svg width="71" height="91" viewBox="0 0 71 91" fill="none" xmlns="http://www.w3.org/2000/svg">
<path d="M20.676 11.5172L19.2338 17.0625H8.875C3.97988 17.0625 0 22.1635 0 28.4375V73.9375C0 80.2115 3.97988 85.3125 8.875 85.3125H62.125C67.0201 85.3125 71 80.2115 71 73.9375V28.4375C71 22.1635 67.0201 17.0625 62.125 17.0625H51.7662L50.324 11.5172C49.4227 8.03359 46.885 5.6875 44.0145 5.6875H26.9855C24.115 5.6875 21.5773 8.03359 20.676 11.5172ZM35.5 34.125C39.0307 34.125 42.4168 35.9227 44.9134 39.1225C47.4099 42.3223 48.8125 46.6622 48.8125 51.1875C48.8125 55.7128 47.4099 60.0527 44.9134 63.2525C42.4168 66.4524 39.0307 68.25 35.5 68.25C31.9693 68.25 28.5832 66.4524 26.0866 63.2525C23.5901 60.0527 22.1875 55.7128 22.1875 51.1875C22.1875 46.6622 23.5901 42.3223 26.0866 39.1225C28.5832 35.9227 31.9693 34.125 35.5 34.125Z" fill="#808080"/>
</svg>
