<svg width="30" height="26" viewBox="0 0 30 26" fill="none" xmlns="http://www.w3.org/2000/svg">
<path d="M2.8125 3.25C1.25977 3.25 0 4.3418 0 5.6875C0 6.4543 0.416016 7.17539 1.125 7.6375L13.875 15.925C14.543 16.3566 15.457 16.3566 16.125 15.925L28.875 7.6375C29.584 7.17539 30 6.4543 30 5.6875C30 4.3418 28.7402 3.25 27.1875 3.25H2.8125ZM0 8.9375V19.5C0 21.2926 1.68164 22.75 3.75 22.75H26.25C28.3184 22.75 30 21.2926 30 19.5V8.9375L17.25 17.225C15.9141 18.0934 14.0859 18.0934 12.75 17.225L0 8.9375Z" fill="black"/>
</svg>
