<svg width="29" height="24" viewBox="0 0 29 24" fill="none" xmlns="http://www.w3.org/2000/svg">
<g clip-path="url(#clip0_134_8)">
<path d="M23.5625 9.75C23.5625 11.9016 22.7186 13.8891 21.2969 15.5016L28.4676 21.4406C29.1756 22.0266 29.1756 22.9781 28.4676 23.5641C27.7596 24.15 26.6098 24.15 25.9018 23.5641L18.7311 17.625C16.7826 18.8062 14.3811 19.5 11.7812 19.5C5.27324 19.5 0 15.1359 0 9.75C0 4.36406 5.27324 0 11.7812 0C18.2893 0 23.5625 4.36406 23.5625 9.75ZM11.7812 16.5C12.8523 16.5 13.9129 16.3254 14.9025 15.9862C15.8921 15.647 16.7912 15.1498 17.5486 14.523C18.306 13.8962 18.9068 13.1521 19.3166 12.3331C19.7265 11.5142 19.9375 10.6364 19.9375 9.75C19.9375 8.86358 19.7265 7.98583 19.3166 7.16689C18.9068 6.34794 18.306 5.60382 17.5486 4.97703C16.7912 4.35023 15.8921 3.85303 14.9025 3.51381C13.9129 3.17459 12.8523 3 11.7812 3C10.7102 3 9.64955 3.17459 8.65999 3.51381C7.67043 3.85303 6.77129 4.35023 6.01391 4.97703C5.25653 5.60382 4.65575 6.34794 4.24586 7.16689C3.83597 7.98583 3.625 8.86358 3.625 9.75C3.625 10.6364 3.83597 11.5142 4.24586 12.3331C4.65575 13.1521 5.25653 13.8962 6.01391 14.523C6.77129 15.1498 7.67043 15.647 8.65999 15.9862C9.64955 16.3254 10.7102 16.5 11.7812 16.5Z" fill="#AAA2A2"/>
</g>
<defs>
<clipPath id="clip0_134_8">
<rect width="29" height="24" fill="white"/>
</clipPath>
</defs>
</svg>
