<svg width="60" height="57" viewBox="0 0 60 57" fill="none" xmlns="http://www.w3.org/2000/svg">
<g clip-path="url(#clip0_162_177)">
<path d="M48.75 23.1562C48.75 28.2662 47.0039 32.9865 44.0625 36.8162L58.8984 50.9215C60.3633 52.3131 60.3633 54.573 58.8984 55.9646C57.4336 57.3562 55.0547 57.3562 53.5898 55.9646L38.7539 41.8594C34.7227 44.6648 29.7539 46.3125 24.375 46.3125C10.9102 46.3125 0 35.9478 0 23.1562C0 10.3646 10.9102 0 24.375 0C37.8398 0 48.75 10.3646 48.75 23.1562ZM24.375 39.1875C26.5911 39.1875 28.7854 38.7728 30.8328 37.9672C32.8802 37.1615 34.7404 35.9807 36.3074 34.4921C37.8744 33.0034 39.1174 31.2361 39.9655 29.2911C40.8135 27.3461 41.25 25.2615 41.25 23.1562C41.25 21.051 40.8135 18.9664 39.9655 17.0214C39.1174 15.0764 37.8744 13.3091 36.3074 11.8204C34.7404 10.3318 32.8802 9.15095 30.8328 8.34531C28.7854 7.53966 26.5911 7.125 24.375 7.125C22.1589 7.125 19.9646 7.53966 17.9172 8.34531C15.8698 9.15095 14.0096 10.3318 12.4426 11.8204C10.8756 13.3091 9.63258 15.0764 8.78453 17.0214C7.93648 18.9664 7.5 21.051 7.5 23.1562C7.5 25.2615 7.93648 27.3461 8.78453 29.2911C9.63258 31.2361 10.8756 33.0034 12.4426 34.4921C14.0096 35.9807 15.8698 37.1615 17.9172 37.9672C19.9646 38.7728 22.1589 39.1875 24.375 39.1875Z" fill="#CAC5C5"/>
</g>
<defs>
<clipPath id="clip0_162_177">
<rect width="60" height="57" fill="white"/>
</clipPath>
</defs>
</svg>
