<svg width="30" height="27" viewBox="0 0 30 27" fill="none" xmlns="http://www.w3.org/2000/svg">
<g clip-path="url(#clip0_142_34)">
<path d="M9.66211 1.29717C9.21094 0.316314 8.02148 -0.205757 6.88477 0.0737354L1.72852 1.33936C0.708984 1.59249 0 2.42569 0 3.37491C0 16.4214 11.7539 26.9999 26.25 26.9999C27.3047 26.9999 28.2305 26.3618 28.5117 25.4442L29.918 20.8036C30.2285 19.7806 29.6484 18.7101 28.5586 18.304L22.9336 16.1946C21.9785 15.836 20.8711 16.0839 20.2207 16.8064L17.8535 19.4062C13.7285 17.6501 10.3887 14.6442 8.4375 10.9317L11.3262 8.80655C12.1289 8.21592 12.4043 7.22452 12.0059 6.36495L9.66211 1.30245V1.29717Z" fill="black"/>
</g>
<defs>
<clipPath id="clip0_142_34">
<rect width="30" height="27" fill="white"/>
</clipPath>
</defs>
</svg>
