<svg width="34" height="28" viewBox="0 0 34 28" fill="none" xmlns="http://www.w3.org/2000/svg">
<g clip-path="url(#clip0_164_216)">
<path d="M21.6684 11.9656C21.6684 13.0867 20.5594 14 19.198 14H14.5297V9.93125H19.198C20.5594 9.93125 21.6684 10.8445 21.6684 11.9656ZM33.4688 14C33.4688 21.4922 26.0977 27.5625 17 27.5625C7.90234 27.5625 0.53125 21.4922 0.53125 14C0.53125 6.50781 7.90234 0.4375 17 0.4375C26.0977 0.4375 33.4688 6.50781 33.4688 14ZM24.9621 11.9656C24.9621 9.34609 22.3789 7.21875 19.198 7.21875H11.2359V20.7812H14.5297V16.7125H19.198C22.3789 16.7125 24.9621 14.5852 24.9621 11.9656Z" fill="#9ACBBD"/>
</g>
<defs>
<clipPath id="clip0_164_216">
<rect width="34" height="28" fill="white"/>
</clipPath>
</defs>
</svg>
