<svg width="25" height="28" viewBox="0 0 25 28" fill="none" xmlns="http://www.w3.org/2000/svg">
<g clip-path="url(#clip0_142_24)">
<path d="M12.5 11.083C11.9113 11.0832 11.336 11.2544 10.8466 11.5751C10.3573 11.8958 9.97593 12.3514 9.75081 12.8845C9.52569 13.4175 9.46691 14.004 9.58188 14.5698C9.69686 15.1355 9.98044 15.6552 10.3968 16.063C10.8131 16.4709 11.3435 16.7486 11.9208 16.8611C12.4982 16.9735 13.0966 16.9157 13.6405 16.6949C14.1843 16.4741 14.6491 16.1002 14.9761 15.6205C15.3031 15.1408 15.4777 14.5769 15.4777 14C15.4771 13.2263 15.1631 12.4846 14.6048 11.9376C14.0465 11.3906 13.2894 11.0833 12.5 11.083ZM19.4593 8.84078C19.3077 8.46445 19.0789 8.12264 18.787 7.83656C18.4951 7.55048 18.1463 7.32623 17.7623 7.17773C16.5904 6.72437 13.8002 6.82609 12.5 6.82609C11.1998 6.82609 8.41239 6.72055 7.23717 7.17773C6.85315 7.32623 6.50436 7.55048 6.21245 7.83656C5.92053 8.12264 5.69171 8.46445 5.54018 8.84078C5.07812 9.98922 5.18136 12.7263 5.18136 13.9995C5.18136 15.2726 5.07812 18.0064 5.54241 19.1587C5.69394 19.535 5.92276 19.8768 6.21468 20.1629C6.5066 20.449 6.85538 20.6732 7.2394 20.8217C8.41127 21.2751 11.2015 21.1734 12.5022 21.1734C13.803 21.1734 16.5893 21.2789 17.7645 20.8217C18.1485 20.6732 18.4973 20.449 18.7892 20.1629C19.0811 19.8768 19.31 19.535 19.4615 19.1587C19.9275 18.0102 19.8203 15.2731 19.8203 14C19.8203 12.7269 19.9275 9.99359 19.4615 8.84133L19.4593 8.84078ZM12.5 18.4844C11.595 18.4844 10.7103 18.2214 9.95777 17.7286C9.20527 17.2359 8.61876 16.5355 8.27243 15.7161C7.92609 14.8967 7.83547 13.995 8.01203 13.1251C8.18859 12.2553 8.6244 11.4562 9.26435 10.8291C9.90431 10.2019 10.7197 9.77482 11.6073 9.60179C12.4949 9.42876 13.415 9.51757 14.2511 9.85698C15.0873 10.1964 15.8019 10.7712 16.3047 11.5086C16.8075 12.2461 17.0759 13.1131 17.0759 14C17.0766 14.5891 16.9588 15.1726 16.7291 15.7169C16.4994 16.2613 16.1623 16.756 15.7373 17.1725C15.3122 17.5891 14.8075 17.9194 14.252 18.1445C13.6965 18.3696 13.1011 18.4851 12.5 18.4844ZM17.2645 10.3742C17.0532 10.3743 16.8467 10.313 16.671 10.1981C16.4952 10.0831 16.3583 9.91969 16.2773 9.72844C16.1964 9.53719 16.1752 9.32671 16.2163 9.12363C16.2575 8.92055 16.3592 8.73399 16.5085 8.58755C16.6579 8.44111 16.8482 8.34137 17.0554 8.30093C17.2626 8.2605 17.4774 8.2812 17.6726 8.36041C17.8678 8.43961 18.0346 8.57377 18.152 8.74592C18.2694 8.91806 18.332 9.12046 18.332 9.3275C18.3326 9.46499 18.3055 9.60124 18.2522 9.72844C18.199 9.85564 18.1206 9.97128 18.0216 10.0687C17.9227 10.1662 17.805 10.2435 17.6755 10.2963C17.5459 10.3491 17.407 10.3763 17.2667 10.3764L17.2645 10.3742ZM22.3214 1.75H2.67857C1.96817 1.75 1.28686 2.02656 0.784535 2.51884C0.282206 3.01113 0 3.67881 0 4.375L0 23.625C0 24.3212 0.282206 24.9889 0.784535 25.4812C1.28686 25.9734 1.96817 26.25 2.67857 26.25H22.3214C23.0318 26.25 23.7131 25.9734 24.2155 25.4812C24.7178 24.9889 25 24.3212 25 23.625V4.375C25 3.67881 24.7178 3.01113 24.2155 2.51884C23.7131 2.02656 23.0318 1.75 22.3214 1.75ZM21.3661 17.6094C21.2941 19.011 20.9676 20.253 19.9235 21.2734C18.8795 22.2939 17.6133 22.6204 16.1847 22.6871C14.7109 22.7686 10.2924 22.7686 8.81864 22.6871C7.38839 22.6166 6.12556 22.2961 5.0798 21.2734C4.03404 20.2508 3.70536 19.0083 3.63728 17.6094C3.55413 16.1645 3.55413 11.8338 3.63728 10.3906C3.70926 8.98898 4.03181 7.74703 5.0798 6.72656C6.12779 5.70609 7.39397 5.38344 8.81864 5.31672C10.2924 5.23523 14.7109 5.23523 16.1847 5.31672C17.615 5.38727 18.8817 5.70773 19.9235 6.73039C20.9654 7.75305 21.298 8.99555 21.3661 10.3972C21.4492 11.8366 21.4492 16.1634 21.3661 17.6094Z" fill="black"/>
</g>
<defs>
<clipPath id="clip0_142_24">
<rect width="25" height="28" fill="white"/>
</clipPath>
</defs>
</svg>
