<svg width="25" height="28" viewBox="0 0 25 28" fill="none" xmlns="http://www.w3.org/2000/svg">
<g clip-path="url(#clip0_142_20)">
<path d="M22.3214 1.75H2.67857C1.96817 1.75 1.28686 2.02656 0.784535 2.51884C0.282206 3.01113 0 3.67881 0 4.375L0 23.625C0 24.3212 0.282206 24.9889 0.784535 25.4812C1.28686 25.9734 1.96817 26.25 2.67857 26.25H10.3376V17.9205H6.82199V14H10.3376V11.0119C10.3376 7.61305 12.4023 5.73562 15.5647 5.73562C17.0792 5.73562 18.6629 6.00031 18.6629 6.00031V9.33625H16.918C15.1987 9.33625 14.6624 10.3819 14.6624 11.4543V14H18.5006L17.8867 17.9205H14.6624V26.25H22.3214C23.0318 26.25 23.7131 25.9734 24.2155 25.4812C24.7178 24.9889 25 24.3212 25 23.625V4.375C25 3.67881 24.7178 3.01113 24.2155 2.51884C23.7131 2.02656 23.0318 1.75 22.3214 1.75Z" fill="black"/>
</g>
<defs>
<clipPath id="clip0_142_20">
<rect width="25" height="28" fill="white"/>
</clipPath>
</defs>
</svg>
