<svg width="25" height="29" viewBox="0 0 25 29" fill="none" xmlns="http://www.w3.org/2000/svg">
<g clip-path="url(#clip0_142_27)">
<path d="M25 11.8894C22.5432 11.8954 20.1467 11.1177 18.149 9.66629V19.7891C18.1483 21.664 17.5837 23.4939 16.5307 25.0343C15.4777 26.5747 13.9865 27.752 12.2565 28.409C10.5264 29.0659 8.64001 29.1711 6.84948 28.7104C5.05895 28.2498 3.44965 27.2453 2.23676 25.8313C1.02386 24.4172 0.265196 22.661 0.0621985 20.7975C-0.140799 18.934 0.221549 17.0521 1.10079 15.4032C1.98004 13.7544 3.33426 12.4173 4.9824 11.5708C6.63053 10.7242 8.49401 10.4086 10.3237 10.666V15.7574C9.48641 15.4901 8.58735 15.4982 7.75488 15.7804C6.9224 16.0627 6.19908 16.6047 5.68822 17.3291C5.17735 18.0535 4.90506 18.9232 4.91023 19.8141C4.9154 20.7049 5.19776 21.5713 5.717 22.2896C6.23624 23.0078 6.9658 23.5412 7.80149 23.8135C8.63718 24.0858 9.53627 24.0831 10.3704 23.8058C11.2045 23.5285 11.9309 22.9907 12.4459 22.2694C12.961 21.548 13.2383 20.68 13.2383 19.7891V0H18.149C18.1456 0.420919 18.1803 0.841264 18.2528 1.25572C18.4234 2.18094 18.7782 3.06109 19.2955 3.84235C19.8128 4.62361 20.4816 5.28955 21.2612 5.79943C22.3702 6.54374 23.6704 6.94046 25 6.94018V11.8894Z" fill="black"/>
</g>
<defs>
<clipPath id="clip0_142_27">
<rect width="25" height="29" fill="white"/>
</clipPath>
</defs>
</svg>
