<svg width="25" height="29" viewBox="0 0 25 29" fill="none" xmlns="http://www.w3.org/2000/svg">
<g clip-path="url(#clip0_145_36)">
<path d="M25.0001 11.8894C22.5433 11.8954 20.1468 11.1177 18.1491 9.66629V19.7891C18.1484 21.664 17.5838 23.4939 16.5308 25.0343C15.4778 26.5747 13.9866 27.752 12.2565 28.409C10.5265 29.0659 8.64009 29.1711 6.84956 28.7104C5.05903 28.2498 3.44972 27.2453 2.23683 25.8313C1.02394 24.4172 0.265273 22.661 0.0622752 20.7975C-0.140722 18.934 0.221626 17.0521 1.10087 15.4032C1.98011 13.7544 3.33434 12.4173 4.98247 11.5708C6.63061 10.7242 8.49409 10.4086 10.3237 10.666V15.7574C9.48649 15.4901 8.58743 15.4982 7.75495 15.7804C6.92248 16.0627 6.19916 16.6047 5.68829 17.3291C5.17743 18.0535 4.90514 18.9232 4.91031 19.8141C4.91548 20.7049 5.19784 21.5713 5.71708 22.2896C6.23632 23.0078 6.96588 23.5412 7.80157 23.8135C8.63726 24.0858 9.53635 24.0831 10.3704 23.8058C11.2045 23.5285 11.931 22.9907 12.446 22.2694C12.9611 21.548 13.2384 20.68 13.2384 19.7891V0H18.1491C18.1457 0.420919 18.1804 0.841264 18.2529 1.25572C18.4235 2.18094 18.7783 3.06109 19.2956 3.84235C19.8129 4.62361 20.4817 5.28955 21.2612 5.79943C22.3703 6.54374 23.6705 6.94046 25.0001 6.94018V11.8894Z" fill="black"/>
</g>
<defs>
<clipPath id="clip0_145_36">
<rect width="25" height="29" fill="white"/>
</clipPath>
</defs>
</svg>
