<svg width="24" height="22" viewBox="0 0 24 22" fill="none" xmlns="http://www.w3.org/2000/svg">
<g clip-path="url(#clip0_164_239)">
<path d="M1.77225 0.860107C0.79382 0.860107 0 1.74194 0 2.82886V15.9539C0 17.0408 0.79382 17.9226 1.77225 17.9226H2.363C2.363 20.0964 3.95064 21.8601 5.9075 21.8601C7.86436 21.8601 9.452 20.0964 9.452 17.9226H14.178C14.178 20.0964 15.7656 21.8601 17.7225 21.8601C19.6794 21.8601 21.267 20.0964 21.267 17.9226H22.4485C23.102 17.9226 23.63 17.3361 23.63 16.6101C23.63 15.8841 23.102 15.2976 22.4485 15.2976V12.6726V11.3601V10.5931C22.4485 9.89585 22.2011 9.22729 21.7581 8.73511L18.904 5.5646C18.4609 5.07241 17.8591 4.79761 17.2314 4.79761H15.3595V2.82886C15.3595 1.74194 14.5657 0.860107 13.5872 0.860107H1.77225ZM15.3595 7.42261H17.2314L20.0855 10.5931V11.3601H15.3595V7.42261ZM4.13525 17.9226C4.13525 17.4005 4.32197 16.8997 4.65433 16.5305C4.98669 16.1613 5.43747 15.9539 5.9075 15.9539C6.37753 15.9539 6.82831 16.1613 7.16067 16.5305C7.49303 16.8997 7.67975 17.4005 7.67975 17.9226C7.67975 18.4448 7.49303 18.9455 7.16067 19.3147C6.82831 19.6839 6.37753 19.8914 5.9075 19.8914C5.43747 19.8914 4.98669 19.6839 4.65433 19.3147C4.32197 18.9455 4.13525 18.4448 4.13525 17.9226ZM17.7225 15.9539C18.1925 15.9539 18.6433 16.1613 18.9757 16.5305C19.308 16.8997 19.4947 17.4005 19.4947 17.9226C19.4947 18.4448 19.308 18.9455 18.9757 19.3147C18.6433 19.6839 18.1925 19.8914 17.7225 19.8914C17.2525 19.8914 16.8017 19.6839 16.4693 19.3147C16.137 18.9455 15.9502 18.4448 15.9502 17.9226C15.9502 17.4005 16.137 16.8997 16.4693 16.5305C16.8017 16.1613 17.2525 15.9539 17.7225 15.9539Z" fill="#9ACBBD"/>
</g>
<defs>
<clipPath id="clip0_164_239">
<rect width="23.63" height="21" fill="white" transform="translate(0 0.860107)"/>
</clipPath>
</defs>
</svg>
