<svg width="36" height="33" viewBox="0 0 36 33" fill="none" xmlns="http://www.w3.org/2000/svg">
<path d="M18 33C20.8382 33 23.1404 31.1534 23.1404 28.875H12.8596C12.8596 31.1534 15.1618 33 18 33ZM35.3081 23.3507C33.7556 22.0127 30.8507 19.9998 30.8507 13.4062C30.8507 8.39824 26.4728 4.38926 20.5698 3.4057V2.0625C20.5698 0.923613 19.4191 0 18 0C16.5809 0 15.4302 0.923613 15.4302 2.0625V3.4057C9.52717 4.38926 5.14933 8.39824 5.14933 13.4062C5.14933 19.9998 2.24442 22.0127 0.691928 23.3507C0.209787 23.7664 -0.00396229 24.2634 5.55578e-05 24.75C0.00889482 25.807 1.04309 26.8125 2.57951 26.8125H33.4205C34.9569 26.8125 35.9919 25.807 35.9999 24.75C36.004 24.2634 35.7902 23.7658 35.3081 23.3507Z" fill="#9ACBBD"/>
</svg>
