<svg width="45" height="38" viewBox="0 0 45 38" fill="none" xmlns="http://www.w3.org/2000/svg">
<path d="M41.25 0H3.75C1.67969 0 0 1.82366 0 4.07143V33.9286C0 36.1763 1.67969 38 3.75 38H41.25C43.3203 38 45 36.1763 45 33.9286V4.07143C45 1.82366 43.3203 0 41.25 0ZM13.75 8.14286C16.5078 8.14286 18.75 10.5772 18.75 13.5714C18.75 16.5656 16.5078 19 13.75 19C10.9922 19 8.75 16.5656 8.75 13.5714C8.75 10.5772 10.9922 8.14286 13.75 8.14286ZM22.5 28.2286C22.5 29.1277 21.7188 29.8571 20.75 29.8571H6.75C5.78125 29.8571 5 29.1277 5 28.2286V26.6C5 23.9027 7.35156 21.7143 10.25 21.7143H10.6406C11.6016 22.1469 12.6484 22.3929 13.75 22.3929C14.8516 22.3929 15.9062 22.1469 16.8594 21.7143H17.25C20.1484 21.7143 22.5 23.9027 22.5 26.6V28.2286ZM40 23.75C40 24.1232 39.7188 24.4286 39.375 24.4286H28.125C27.7812 24.4286 27.5 24.1232 27.5 23.75V22.3929C27.5 22.0196 27.7812 21.7143 28.125 21.7143H39.375C39.7188 21.7143 40 22.0196 40 22.3929V23.75ZM40 18.3214C40 18.6946 39.7188 19 39.375 19H28.125C27.7812 19 27.5 18.6946 27.5 18.3214V16.9643C27.5 16.5911 27.7812 16.2857 28.125 16.2857H39.375C39.7188 16.2857 40 16.5911 40 16.9643V18.3214ZM40 12.8929C40 13.2661 39.7188 13.5714 39.375 13.5714H28.125C27.7812 13.5714 27.5 13.2661 27.5 12.8929V11.5357C27.5 11.1625 27.7812 10.8571 28.125 10.8571H39.375C39.7188 10.8571 40 11.1625 40 11.5357V12.8929Z" fill="#9ACBBD"/>
</svg>
