<svg width="33" height="23" viewBox="0 0 33 23" fill="none" xmlns="http://www.w3.org/2000/svg">
<path d="M2.00088 0.229349C1.46464 -0.139002 0.686059 -0.0536526 0.263254 0.413525C-0.159551 0.880702 -0.0615841 1.55901 0.474656 1.92736L30.9991 22.7707C31.5354 23.139 32.3139 23.0537 32.7367 22.5865C33.1596 22.1193 33.0616 21.441 32.5253 21.0726L27.1011 17.3712C29.1429 15.5474 30.5248 13.5035 31.2208 12.0525C31.391 11.6977 31.391 11.3023 31.2208 10.9475C30.4526 9.3438 28.8387 7.00791 26.4256 5.05834C24.0022 3.09081 20.6662 1.43772 16.5 1.43772C12.9835 1.43772 10.0548 2.61914 7.77062 4.16891L2.00088 0.229349ZM9.78668 5.54349C11.6532 4.38902 13.8961 3.59392 16.5 3.59392C19.8618 3.59392 22.6255 4.92358 24.7447 6.63507C26.7298 8.24324 28.1014 10.1524 28.8026 11.5C28.1529 12.7578 26.9154 14.5007 25.1469 16.0325L22.3729 14.1369C22.8421 13.3462 23.105 12.4523 23.105 11.5C23.105 8.32409 20.1506 5.75013 16.5052 5.75013C14.8449 5.75013 13.3238 6.28469 12.1637 7.16513L9.78668 5.54349ZM20.362 12.7668L16.1597 9.89633C16.3763 9.5145 16.5 9.07876 16.5 8.62506C16.5 8.378 16.4639 8.13543 16.3969 7.90633C16.433 7.90633 16.4639 7.90633 16.5 7.90633C18.779 7.90633 20.6249 9.5145 20.6249 11.5C20.6249 11.9447 20.5321 12.3715 20.362 12.7668ZM20.8466 18.62C19.5318 19.1096 18.0829 19.4061 16.5 19.4061C13.1382 19.4061 10.3745 18.0764 8.2553 16.3649C6.27018 14.7568 4.89864 12.8476 4.1974 11.5C4.62536 10.6735 5.30598 9.63578 6.22893 8.58913L4.28506 7.25498C3.10945 8.58913 2.269 9.91879 1.77916 10.9475C1.60901 11.3023 1.60901 11.6977 1.77916 12.0525C2.54743 13.6562 4.16131 15.9921 6.57439 17.9417C8.99779 19.9092 12.3338 21.5623 16.5 21.5623C18.9646 21.5623 21.1354 20.9828 23.0071 20.1024L20.8466 18.62ZM9.90012 11.5C9.90012 14.6759 12.8546 17.2499 16.5 17.2499C17.1858 17.2499 17.8458 17.16 18.4697 16.9893L15.5719 15.0038C14.3602 14.7613 13.3496 14.0515 12.803 13.1037L9.91043 11.1182C9.90012 11.244 9.89496 11.3697 9.89496 11.5H9.90012Z" fill="#BDBDBD"/>
</svg>
