<svg width="23" height="19" viewBox="0 0 23 19" fill="none" xmlns="http://www.w3.org/2000/svg">
<path d="M15.0938 13.0625C19.4602 13.0625 23 10.1383 23 6.53125C23 2.92422 19.4602 0 15.0938 0C10.7273 0 7.1875 2.92422 7.1875 6.53125C7.1875 7.2252 7.31777 7.89687 7.56035 8.52402L0.314453 14.5098C0.112305 14.6768 0 14.9031 0 15.1406V18.1094C0 18.6029 0.480664 19 1.07812 19H4.67188C5.26934 19 5.75 18.6029 5.75 18.1094V16.625H7.54688C8.14434 16.625 8.625 16.2279 8.625 15.7344V14.25H10.4219C10.7094 14.25 10.9834 14.1572 11.1855 13.9902L12.6814 12.7545C13.4406 12.9549 14.2537 13.0625 15.0938 13.0625ZM16.8906 3.5625C17.3672 3.5625 17.8242 3.71889 18.1612 3.99726C18.4982 4.27564 18.6875 4.65319 18.6875 5.04688C18.6875 5.44056 18.4982 5.81811 18.1612 6.09649C17.8242 6.37486 17.3672 6.53125 16.8906 6.53125C16.4141 6.53125 15.957 6.37486 15.62 6.09649C15.2831 5.81811 15.0938 5.44056 15.0938 5.04688C15.0938 4.65319 15.2831 4.27564 15.62 3.99726C15.957 3.71889 16.4141 3.5625 16.8906 3.5625Z" fill="black"/>
</svg>
