<svg width="21" height="24" viewBox="0 0 21 24" fill="none" xmlns="http://www.w3.org/2000/svg">
<path d="M10.3382 23.63C11.9683 23.63 13.2905 22.3077 13.2905 20.6762H7.38579C7.38579 22.3077 8.70806 23.63 10.3382 23.63ZM20.2789 16.7205C19.3872 15.7624 17.7188 14.3211 17.7188 9.59969C17.7188 6.01365 15.2045 3.14297 11.8141 2.43869V1.47687C11.8141 0.661363 11.1532 0 10.3382 0C9.52311 0 8.8622 0.661363 8.8622 1.47687V2.43869C5.47185 3.14297 2.95747 6.01365 2.95747 9.59969C2.95747 14.3211 1.28907 15.7624 0.397404 16.7205C0.12049 17.0182 -0.00227571 17.374 3.19092e-05 17.7225C0.00510867 18.4794 0.599089 19.1994 1.48152 19.1994H19.1948C20.0772 19.1994 20.6717 18.4794 20.6763 17.7225C20.6786 17.374 20.5558 17.0178 20.2789 16.7205Z" fill="#9ACBBD"/>
</svg>
