<svg width="26" height="30" viewBox="0 0 26 30" fill="none" xmlns="http://www.w3.org/2000/svg">
<path d="M9.75 12.1875C9.75 11.1521 9.0223 10.3125 8.125 10.3125H7.3125C5.51738 10.3125 4.0625 11.9912 4.0625 14.0625V16.875C4.0625 18.9463 5.51738 20.625 7.3125 20.625H8.125C9.0223 20.625 9.75 19.7854 9.75 18.75V12.1875ZM18.6875 20.625C20.4826 20.625 21.9375 18.9463 21.9375 16.875V14.0625C21.9375 11.9912 20.4826 10.3125 18.6875 10.3125H17.875C16.9777 10.3125 16.25 11.1521 16.25 12.1875V18.75C16.25 19.7854 16.9777 20.625 17.875 20.625H18.6875ZM13 0C5.74742 0 0.232578 6.9627 0 15V15.9375C0 16.4555 0.363594 16.875 0.8125 16.875H1.625C2.07391 16.875 2.4375 16.4555 2.4375 15.9375V15C2.4375 8.27988 7.1759 2.8125 13 2.8125C18.8241 2.8125 23.5625 8.27988 23.5625 15H23.5564C23.5605 15.1424 23.5625 24.7102 23.5625 24.7102C23.5625 26.0783 22.6012 27.1875 21.4155 27.1875H16.25C16.25 25.6342 15.1587 24.375 13.8125 24.375H12.1875C10.8413 24.375 9.75 25.6342 9.75 27.1875C9.75 28.7408 10.8413 30 12.1875 30H21.4155C23.9474 30 26 27.6316 26 24.7102V15C25.7674 6.9627 20.2526 0 13 0Z" fill="#9ACBBD"/>
</svg>
